<?xml version="1.0" encoding="utf-8"?>
<!-- Generator: Adobe Illustrator 21.1.0, SVG Export Plug-In . SVG Version: 6.00 Build 0)  -->
<svg version="1.1" id="Layer_1" xmlns="http://www.w3.org/2000/svg" xmlns:xlink="http://www.w3.org/1999/xlink" x="0px" y="0px"
	 viewBox="0 0 551.1 384.5" style="enable-background:new 0 0 551.1 384.5;" xml:space="preserve">
<style type="text/css">
	.st0{fill:#E63534;stroke:#952525;stroke-width:3;stroke-linejoin:round;stroke-miterlimit:10;}
	.st1{fill:#329998;stroke:#1F5A58;stroke-width:3;stroke-linejoin:round;stroke-miterlimit:10;}
	.st2{fill:#ED3437;stroke:#801E26;stroke-width:2;stroke-miterlimit:10;}
	.st3{fill:#379A97;stroke:#1F5A58;stroke-miterlimit:10;}
	.st4{fill:#ED3437;stroke:#801E26;stroke-miterlimit:10;}
	.st5{fill:#4E4E4E;stroke:#333131;stroke-width:2;stroke-miterlimit:10;}
	.st6{fill:#E63534;}
	.st7{fill:#AC9832;}
	.st8{fill:#FCE700;}
	.st9{fill:#E63534;stroke:#952525;stroke-width:2;stroke-miterlimit:10;}
</style>
<g>
	<g>
		<path class="st0" d="M129.3,374.7c-3.8,0-8.4,2.9-8.4-54.4c0-75.6,8-72.7,10.6-72.7h14.1c6,0,8.1,0,15.6,10.2
			c14.4,19.7,15.3,30.9,18.4,30.9c2.3,0,3.2-11.2,19.4-30.9c8.6-10.4,10.9-10.2,16.8-10.2h11.9c2.6,0,10.6-2.8,10.6,72.7
			c0,57.3-4.6,54.4-8.4,54.4h-19.5c-1.8,0-5.5,0.5-5.5-2.3c0-2.1,8.7-29.6,8.7-69.6c0-3.2,0.5-22-4.6-22c-4.4,0-10.2,15.1-11.8,18.8
			c-12.9,31.4-7.7,45.7-17.9,45.7c-12.9,0-7.8-14.3-21.4-45.7c-1.5-3.3-6.6-18.8-11.3-18.8c-5.1,0-4.9,18.8-4.9,22
			c0,39.9,9.6,67.4,9.6,69.6c0,2.8-3.7,2.3-5.5,2.3H129.3z"/>
		<path class="st0" d="M261,374.7c-7.5,0-7.2,3.2-8.1-50.6c-0.5-30.7,1.6-41.2,2.5-47.2h13.5c6.4,0,7.3,1.3,7.3,3.1
			c-0.9,6-2,8.2-2.6,27.3c-0.6,18.3,5.9,62.2,5.9,63.5c0,5-4.5,4-8,4H261z"/>
		<path class="st0" d="M340.8,374.7c-2,0-5.4,0.5-5.4-2.5c0-1.5,7.8-21.8,7.8-52.9c0-10.9-0.8-24.4-11.2-24.4
			c-5.9,0-17.8,3.8-17.8,34.1c0,18.3,4.5,41.9,4.5,43.7c0,2.1-2.6,2-4.1,2h-13c-5.7,0-7.9,2.6-7.9-37.8c0-69.3,5.3-64.9,17.1-64.9
			c5.3,0,10.9-0.8,10.9,2.7c0,1.5-1.4,3.3-1.4,5.5c0,1.5,0.7,2.8,2.2,2.8c2.6,0,9.7-6.3,19.5-6.3c4.3,0,22,0.6,22,40.8
			c0,60.1-4.7,57-9.9,57H340.8z"/>
		<path class="st0" d="M406.2,374.7c-17.1,0-32.1-15.1-32.1-46c0-35,23.3-54.1,36.7-54.1c3.2,0,6.5,3.5,8.7,3.5c3,0,3.4-5.5,3.4-7.9
			c0-12.4-3.8-17.8-3.8-23.7c0-2.1,3.8-2.1,5.3-2.1h15.9c6.9,0,6.3,68.5,6.3,75.7c0,3.5,0.6,54.8-4.7,54.8H406.2z M426.1,317.8
			c0-26.9-4.1-28.7-9.8-28.7c-6.5,0-21.5,8.5-21.5,36.4c0,10.5,3.9,26.9,17,26.9C428.2,352.4,426.1,328.8,426.1,317.8z"/>
	</g>
	<g>
		<path class="st1" d="M167.6,187.7c-2.9,18-10.1,31.9-22.3,41.9c-17.6,14.5-36,18.2-55.7,11.5c-16-5.6-31.5-17.7-47-36.5
			C27,185.6,17,165.1,12.4,143c-5.8-26.8,0.1-47.5,17.2-61.6c8.5-7,17.6-11,27.2-12.4c10.7-1.2,20.2,1.4,28.3,7.9
			c6.7,5.2,9.9,7.8,9.7,7.6c14.9,18.2,18.3,30.7,10,37.5c-5,4-13,4.4-17-0.5c-1.2-1.5-2.1-3.8-2.9-7.7c-0.7-3.9-1.6-6.6-2.8-8.1
			C75.7,97.8,70.2,93.3,66,92C60.3,90,53.6,92,46.4,98c-7.4,6.1-10.5,16.3-9.3,30.8c1.1,11.9,4.2,22.8,9.6,32.7
			c5.6,10.3,11.6,19.2,17.9,26.9c10.7,13,19.4,21.5,26.2,25.5c10.9,6.6,22.6,7.4,35.1,1.9c3.8-1.7,6.6-3.4,8.5-4.9
			c5-4.1,8.8-10.4,10.6-19.1c1.9-7.8,1.7-15.2,0.5-22.2c-1-4-3-8.6-6.3-13.1l-1.3,0c-9.7,8-16.3,15.5-19.8,22.2
			c-1,2.2-2,4.3-2.8,6.8c-1.4,2.9-2.7,4.7-4,5.7c-6.8,5.6-16.6,2.2-22.5-5.1c-2.6-3.1-2.9-6.9-1.3-11.4c1.2-2.7,6.4-9.4,16.2-19.9
			c8.9-9.4,15.4-15.8,19.4-19c11.4-9.3,22.7-6.9,34.1,7C166.8,154.8,170.5,169.8,167.6,187.7z"/>
		<path class="st1" d="M260.9,165.9c-6.5,14.7-17.2,23.5-32.2,26.6c-15.4,3.2-28,0.4-38.1-8.5c-8.9-7.7-15.2-19.5-18.5-35.5
			c-3.3-15.7-2.5-31.4,2.5-47c5.8-18.4,15.8-29.2,30.2-32.2c4.4-0.9,10.6,0,18.2,2.5c22.1,7.7,35.8,24.8,41.2,51.3
			C267.7,138.8,266.4,153,260.9,165.9z M213.5,91.3c-9.1,1.9-15,9.2-17.4,21.4c-1.6,9.3-1.4,19.4,0.8,30.1
			c4.9,23.3,14,33.4,27.9,30.5c8.9-1.8,14.5-7.9,16.9-18.5c1.9-8.1,1.6-17.3-0.5-27.5C235.6,100.6,226.3,88.7,213.5,91.3z"/>
		<path class="st1" d="M362,187.7c-1.4,5.5-5.5,7.8-12.1,7c-9.8-1.1-13.7-6.6-11.6-16.3c-9.3,3.3-18.8,4.4-28.4,3.4
			c-9.3-1-17.8-4.3-25.5-9.7c-9.3-6.7-13.5-14.1-12.7-22.7c0.9-8.2,7.4-15.6,19.6-21.5c11.2-5.5,21.1-7.6,30.1-6.7l22.6,2.5l0.7-6.4
			c2-18.6-2.2-28.5-13.5-29.7c-14.1-1.5-21.7,4.3-23.1,17.4c-0.5,4.5-3.1,6.4-8.2,5.8c-6.1-0.6-13.7-8.2-13-14.3
			c1.1-9.8,5.4-17.7,13.2-23.3c8-5.6,16.8-7.8,26.6-6.8c33.2,3.6,47.5,28,42.6,73.2C366.9,162.4,364.3,178.6,362,187.7z M334.1,140
			c-22.1-2.4-33.8,1.7-35,12.1c-0.6,5.6,3.9,9,13.8,10.1c6.1,0.6,11.9-0.6,17.6-3.2c6.8-3.3,10.4-7.2,11-12.8
			C341.9,142.8,339.4,140.6,334.1,140z"/>
		<path class="st1" d="M378.3,197.3c-10.5-3.7-11-19.5-1.1-47.2c4.4-12.6,11.1-31.5,20.3-56.6c9.2-25.1,16.1-43.9,20.6-56.6
			c1.5-4,3.3-14.1,4.7-17.9c6.9-1.8,11.8-2.1,15.1-0.9c7.3,2.6,13.6,11.1,11,18.4c-0.6,1.7-1.9,3.8-3.6,6.1
			c-2.7,3.6-3.9,5.7-4.3,5.9c-5.9,9.5-12.3,24.1-19,43.2l-16.6,46.9c-7.5,21.2-10.5,36.9-10.4,46.3c0,2.5-0.2,4.7-0.7,6
			C392.1,196.8,384.6,199.5,378.3,197.3z"/>
		<path class="st1" d="M459.6,132.7c-4,4.6-6.8,8.2-8.3,11l-26,48.6c-1.6,3.1-3.2,8.3-5,15.5c-4.2,2.3-7.8,2.8-10.6,1.3
			c-9.9-5.3-12.7-13.2-8.3-23.6c8.1-19.3,14.8-33.5,19.8-42.8c8.3-15.6,16-28.2,22.8-38.1c0.1-0.8,0.6-1.8,1-2.5
			c1.5-2.8,4.3-3.1,8.9-0.7c4,2.1,7.3,5.1,10.5,8.6c4,4.5,5.3,8.3,3.5,11.6C466.4,124.6,463.6,128.2,459.6,132.7z"/>
		<path class="st1" d="M466.6,251.5c-9.4-3.9-17.5-9.8-24.8-17.3c-19.1-19.9-17.5-40.4,5-62.2c9.3-8.9,21.7-16.4,37.3-22.9
			c19.3-7.8,32.5-7.9,40.2-0.1c6.8,7.2,11,17.6,12.5,31.8c1.6,14.4-1,24.8-7.8,31.3c-8.5,8.1-19,10.8-31.2,8.1
			c-10.9-2.5-20.9-8.1-29.8-17.4c-1.6-1.7-3.3-5.7-5-11.8c-11.6,12.3-14.4,21.6-8,28.4c5.4,5.5,12.3,9.6,20.8,11.9
			c8.7,2.4,13.5,4.4,15,5.9c5.5,5.6,6.5,9.8,3.4,12.8C488,256.2,478.7,256.7,466.6,251.5z M514.1,170.9c-4.1-4.2-9.2-5.6-15-4.4
			c-5.1,1.2-9.7,3.8-14.1,8.1c-4.9,4.6-4.8,11.6,0.2,16.8c9.1,9.5,17.4,10.4,25.3,2.8C516.8,188,520,177,514.1,170.9z"/>
	</g>
	<path class="st2" d="M497.6,70.9c0.7,2.1,1,4.3,1,6.6c0,13.1-10.5,23.7-23.6,23.7c-13.1,0-23.7-10.6-23.7-23.7
		c0-13,10.5-23.6,23.7-23.6C485.7,53.9,494.8,61.1,497.6,70.9"/>
	<path class="st3" d="M491.7,77.6c0,9.3-7.5,16.8-16.7,16.8c-9.3,0-16.8-7.5-16.8-16.8c0-9.2,7.6-16.7,16.8-16.7
		C484.2,60.8,491.7,68.4,491.7,77.6z"/>
	<path class="st4" d="M485.2,77.6c0,5.7-4.5,10.3-10.2,10.3c-5.7,0-10.3-4.6-10.3-10.3c0-5.6,4.6-10.2,10.3-10.2
		C480.6,67.4,485.2,71.9,485.2,77.6z"/>
	<path class="st5" d="M475,77.6c0,0,16.4-17.2,21.7-20.8c-0.8-4.9-14.5-7.7-14.5-7.7s19.6-29.8,35.8-38.2C532.6,15.3,541,33,541,33
		s-30.6,4.4-37.8,16.1c4.4,3.5,10.4,7.7,13.6,12.5C502,64,482.3,71.8,475,77.6z"/>
	<path class="st6" d="M279.8,265.3l-5.4-2.1c0.2-1,0.5-2.5,1-4.3c1.6-6.9,4.4-18.4,6.5-24c1.4,0.1,2.7,0,4-0.7
		c1.2-0.8,2.3-2.1,2.9-3.9c0.7-1.5,0.5-3.2-0.3-4.3c-0.8-1.1-2.5-1.6-4.7,1c-0.9,1-1.7,2.7-2.6,4.8c-0.8-0.2-1.5-0.6-2.1-1
		c1.3-1.1,1.7-2.6,1.8-3.2c0.4-2.1-0.7-4.6-2.6-5c-1.7-0.3-3.7,1.5-4.3,3.6c-0.1,0.7-0.4,2.2,0.5,3.7c-0.7,0.2-1.6,0.2-2.4,0
		c0.1-2.2-0.1-4.2-0.5-5.4c-0.9-3.1-2.7-3.5-3.9-2.7c-1.1,0.7-1.9,2.2-2,3.8c0,1.9,0.4,3.6,1.2,4.7c0.9,1.1,2,1.9,3.3,2.3
		c-0.3,5.9-2.2,17.6-3.5,24.6c-0.1,1-0.4,2-0.5,2.9l-6.9-2.8 M275.6,232.5c0.3-0.2,0.6-0.3,0.9-0.4c0.2,0.2,0.3,0.4,0.6,0.6
		c0.8,0.7,2,1.4,3.1,1.7c-2.4,6.4-5.1,17.8-6.6,24.1c-0.4,1.8-0.7,3.2-0.9,3.9l-4.5-1.8c0.1-0.8,0.3-1.9,0.6-3.1
		c1.1-6.3,3.1-18,3.4-24.7C273.4,232.9,274.5,232.8,275.6,232.5z M287.3,229.1c-0.4,1-1,1.7-1.8,2.2c-0.7,0.5-1.6,0.7-2.4,0.7
		c0.7-1.3,1.2-2.3,1.7-2.9c1.2-1.4,2.1-1.3,2.3-0.8C287.4,228.6,287.4,229,287.3,229.1 M270.4,229.5c-0.8-0.4-1.5-0.9-2-1.5
		c-0.5-0.8-0.7-1.8-0.7-2.8c0-0.2,0.2-0.5,0.5-0.6c0.4-0.4,1.3-0.1,1.8,1.7C270.3,226.9,270.4,228,270.4,229.5 M275.8,226.6
		c0.2-0.5,1.3-1.2,2-1.1c0.8,0.1,1.5,1.4,1.4,1.8c-0.1,0.4-0.7,1.2-2.1,1.6C276,228,275.7,227,275.8,226.6z"/>
	<path class="st7" d="M257,266.2l-33.8,22.5l19.7-36.1l-41.1,2.3l35.2-21.3l-36.7-18.7l41.2-0.9l-22.5-34.5l36.1,19.8l-2.2-41
		l21.3,35.1l18.6-36.7l0.9,41.2l34.4-22.5l-19.8,36l41-2.3l-35.2,21.4l36.7,18.6l-41.1,0.8l22.5,34.5l-36-19.8l2.2,41.1l-21.3-35.2
		L257,266.2z M303.7,237.9c3.2-15.6-6.9-30.8-22.4-34c-15.6-3.2-30.9,6.9-34.1,22.5c-2.2,10.9,2.1,22.3,11.1,29l1.1,0.7l-0.7,3.5
		l7.3,2.8l8.4,3.2l5.7,2.3l1.5-7.5l1.2-0.3C293.3,257.3,301.5,248.8,303.7,237.9z"/>
	<path class="st8" d="M259.3,261.8l-29.6,19.7l17.3-31.6l-35.9,2l30.8-18.7L209.6,217l36.1-0.8L225.9,186l31.6,17.4l-1.9-35.9
		l18.7,30.8l16.3-32.2l0.7,36.1l30.3-19.7L304.2,214l36-2l-30.9,18.7l32.2,16.4l-36,0.7l19.7,30.2l-31.6-17.3l2,36l-18.8-30.8
		L259.3,261.8z M300.2,237c2.9-13.6-6-27-19.7-29.8c-13.6-2.8-27,6-29.8,19.7c-2,9.5,1.9,19.6,9.7,25.4l1,0.7l-0.6,3l6.4,2.5
		l7.3,2.8l4.9,2l1.3-6.6l1.1-0.2C291.2,254.1,298.3,246.7,300.2,237z"/>
	<g>
		<g>
			<path class="st9" d="M285,190.7c0,0-6.4,12.6-7.8,12.5c-2.3-0.2-4.6,0-6.8,0.4c-1.5,0.3-7.3-11.7-7.3-11.7s0,14-1.4,14.7
				c-1.6,0.9-3.2,2-4.6,3.1c-0.8,0.7-12.5-6.5-12.5-6.5s8.4,10.7,7.6,11.7c-1.6,2.2-3,4.7-3.9,7.4l-14,0.2l12.4,6.4
				c-0.3,2.8-0.2,5.6,0.3,8.4c-0.1-0.1-11.9,7.2-11.9,7.2s13.8-0.8,13.9-0.8c1.5,3.1,4.5,7.1,4.5,7.1l-6.5,11.8l9.7-6.1l-4.1,20.2
				c-0.1,0.4,0,0.9,0.2,1.2c0.2,0.3,3.6,6.3,11.4,8c7.7,1.6,14-2.4,14.4-2.5c0.3-0.3,0.7-0.8,0.8-1.2c0,0,2.4-11.5,3.7-18
				c0.5-2.6,5.1,8.3,5.1,8.3s-1.9-13.6-0.7-14c2.4-1.2,4.8-2.7,6.9-4.5c0.6-0.6,12.4,6.8,12.4,6.8s-8.6-10.8-7.8-11.9
				c1.6-2.2,2.8-4.6,3.7-7.2c0.5-1.2,14.3-0.2,14.3-0.2s-12.8-6-12.7-7.1c0.3-2.6,0.1-5.1-0.3-7.4c-0.3-1.3,12.1-7.5,12.1-7.5
				s-14,1.3-14.6,0c-1-2.1-2.2-4-3.7-5.8c-1-1.1,6.3-12.5,6.3-12.5s-11.8,7.4-13,6.6c-1.8-1.1-3.7-2.1-5.7-2.8
				C284,204.4,285,190.7,285,190.7z M276.3,278.3l-18.6-7.4l0.8-4.1l18.7,7.4L276.3,278.3z M277.9,270.6l-18.6-7.4l0.5-2.4l0.2-1.1
				l18.7,7.3L277.9,270.6z M281.8,256.5l-1.1,0.2l-1.3,6.6l-4.9-2l-7.3-2.8l-6.4-2.5l0.6-3l-1-0.7c-7.8-5.8-11.7-15.8-9.7-25.4
				c2.8-13.7,16.2-22.5,29.8-19.7c13.7,2.8,22.6,16.1,19.7,29.8C298.3,246.7,291.2,254.1,281.8,256.5z"/>
		</g>
		<polygon class="st8" points="276.3,278.3 257.7,270.9 258.5,266.8 277.2,274.3 		"/>
		<polygon class="st8" points="277.9,270.6 259.3,263.2 259.9,260.6 260,259.7 278.7,267 		"/>
	</g>
</g>
</svg>
